PathFileType	3	(X/Y/Z)	RCH0000002 BBF 04.c3d
DataRate	CameraRate	NumFrames	NumMarkers	Units	OrigDataRate	OrigDataStartFrame	OrigNumFrames
100.0	100.0	6	23	mm	100.0	313	346
Frame#	Time	T2			MAN			RASI			LPAT			LKNE			LANK			LMED			LHEE			LTOE			RPAT			RKNE			LASI			T10			RPSI			RANK			RTOE			RMED			RHEE			LPSI			RTHI			LTHI			RTIB			LTIB			
		X1	Y1	Z1	X2	Y2	Z2	X3	Y3	Z3	X4	Y4	Z4	X5	Y5	Z5	X6	Y6	Z6	X7	Y7	Z7	X8	Y8	Z8	X9	Y9	Z9	X10	Y10	Z10	X11	Y11	Z11	X12	Y12	Z12	X13	Y13	Z13	X14	Y14	Z14	X15	Y15	Z15	X16	Y16	Z16	X17	Y17	Z17	X18	Y18	Z18	X19	Y19	Z19	X20	Y20	Z20	X21	Y21	Z21	X22	Y22	Z22	X23	Y23	Z23	

313	3.120	-1237.96694	56.27379	955.94462	-1105.49215	63.13141	934.65868	-1129.95508	-84.65501	641.31633	-1041.63378	31.11590	381.95724	-1067.93810	92.75792	332.54415	-1108.27908	104.86998	62.60198	-1111.51610	34.45449	77.25661	-1151.88881	66.32431	88.46961	-1060.78325	66.76962	63.47143	-1206.82913	-42.23200	342.66619	-1266.80973	-90.92006	334.47951	-1106.26812	88.74351	622.71042	-1214.89422	34.78836	771.27791	-1229.94819	-11.09981	690.48537	-1434.57368	-101.29843	115.22907	-1410.86368	-61.49225	78.09257	-1439.49331	-34.07811	131.32809	-1455.03199	-71.81001	167.89262	-1222.61257	59.69186	680.09504	-1218.21034	-158.63051	436.50316	-1095.94876	169.58467	450.04564	-1340.82362	-161.54316	244.75144	-1078.58236	160.56507	220.42588	
314	3.130	-1227.99534	57.14072	956.49561	-1095.36344	63.67321	936.54413	-1117.47176	-83.01898	640.26516	-1038.12021	34.71329	381.40008	-1065.51260	96.12485	332.68601	-1108.49220	106.89291	62.57151	-1112.14216	36.62944	77.91944	-1152.09387	68.78509	89.20492	-1061.28122	68.37051	63.28802	-1188.83576	-40.33583	340.73075	-1248.81564	-89.09763	332.20127	-1096.70763	91.01081	625.02873	-1203.26945	33.74161	772.49743	-1218.28380	-12.14410	691.35137	-1422.02526	-101.41392	118.26522	-1400.60672	-61.62853	79.60113	-1426.95054	-34.18676	134.17692	-1440.55083	-71.84422	171.60144	-1212.04625	58.90386	682.57792	-1201.80611	-156.75365	434.98859	-1090.82990	172.68769	450.94314	-1323.74523	-160.49205	244.94554	-1077.11279	163.43060	219.96412	
315	3.140	-1218.16533	57.66582	957.53937	-1085.42701	64.07122	938.76175	-1105.31992	-81.17625	639.67495	-1035.31881	38.53820	381.19871	-1063.90132	99.69758	333.19874	-1108.74601	108.86673	62.80137	-1112.70693	38.76823	78.86376	-1152.35111	71.15864	90.14750	-1061.77425	69.98732	63.38704	-1170.43398	-38.28632	339.43409	-1230.32046	-87.19858	330.35710	-1087.61811	93.44995	627.61017	-1192.02907	32.76344	774.14548	-1207.00160	-13.01802	692.59056	-1408.38088	-101.42428	121.50253	-1388.94943	-61.77202	81.49014	-1413.26177	-34.14719	137.11988	-1425.15991	-71.67818	175.32036	-1201.89881	58.24868	685.35784	-1185.15592	-154.77713	433.99459	-1086.43915	175.95456	452.18236	-1306.01470	-159.33822	245.50212	-1076.31090	166.43549	219.78406	
316	3.150	-1208.48759	57.86704	959.04078	-1075.69323	64.33312	941.25621	-1093.53490	-79.15288	639.56706	-1033.14412	42.44923	381.26291	-1063.00672	103.35624	333.98750	-1108.98957	110.68955	63.22188	-1113.11999	40.76717	79.99726	-1152.59038	73.32175	91.21488	-1062.18093	71.54820	63.69706	-1151.71243	-36.13947	338.85558	-1211.43242	-85.25726	329.03477	-1078.96602	96.01461	630.37397	-1181.19354	31.91192	776.16189	-1196.11219	-13.66924	694.15715	-1393.66582	-101.32488	124.87806	-1375.80703	-61.92425	83.72470	-1398.43350	-33.95381	140.08946	-1408.94642	-71.30100	178.97782	-1192.14716	57.77409	688.34562	-1168.38418	-152.74393	433.59416	-1082.68527	179.27836	453.66075	-1287.75661	-158.10125	246.47236	-1076.13428	169.46162	219.81926	
317	3.160	-1198.96827	57.77966	960.94418	-1066.16544	64.47223	943.96027	-1082.13296	-76.97877	639.93627	-1031.47977	46.31883	381.51506	-1062.69793	106.98267	334.96613	-1109.20597	112.27272	63.77977	-1113.32793	42.53597	81.24453	-1152.76994	75.16601	92.35099	-1062.45841	72.99114	64.15477	-1132.75088	-33.95220	339.03958	-1192.25314	-83.30761	328.29218	-1070.71077	98.65946	633.23742	-1170.76996	31.23475	778.47108	-1185.61165	-14.06494	695.98996	-1377.91195	-101.11087	128.30575	-1361.12738	-62.07818	86.24174	-1382.48933	-33.60516	143.00333	-1391.99455	-70.71007	182.48906	-1182.76132	57.50994	691.44722	-1151.60353	-150.69766	433.82627	-1079.46479	182.55979	455.27862	-1269.08135	-156.80178	247.87370	-1076.52644	172.39644	220.01362	
318	3.170	-1189.60850	57.45331	963.17652	-1056.83988	64.50670	946.79700	-1071.11214	-74.68546	640.75032	-1030.18590	50.04514	381.89276	-1062.81953	110.47160	336.06152	-1109.39645	113.55190	64.43784	-1113.30519	44.00876	82.54940	-1152.86560	76.61216	93.52490	-1062.59091	74.27035	64.70720	-1113.61803	-31.77746	339.99346	-1172.87248	-81.38041	328.15395	-1062.80921	101.34260	636.12038	-1160.75411	30.76542	780.98656	-1175.48423	-14.19459	698.01502	-1361.15677	-100.77629	131.68330	-1344.89771	-62.21796	88.95592	-1365.46970	-33.10273	145.77095	-1374.37939	-69.90963	185.76222	-1173.70867	57.46514	694.56799	-1134.90654	-148.67889	434.69256	-1076.66983	185.71500	456.94681	-1250.07980	-155.45868	249.68726	-1077.40924	175.14410	220.32312	
